<?xml version="1.0" encoding="UTF-8"?>
<!DOCTYPE svg PUBLIC "-//W3C//DTD SVG 1.1//EN" "http://www.w3.org/Graphics/SVG/1.1/DTD/svg11.dtd">
<svg xmlns="http://www.w3.org/2000/svg" version="1.1" width="2000px" height="2000px" style="shape-rendering:geometricPrecision; text-rendering:geometricPrecision; image-rendering:optimizeQuality; fill-rule:evenodd; clip-rule:evenodd" xmlns:xlink="http://www.w3.org/1999/xlink">
<g><path style="opacity:1" fill="#000000" d="M -0.5,-0.5 C 666.167,-0.5 1332.83,-0.5 1999.5,-0.5C 1999.5,666.167 1999.5,1332.83 1999.5,1999.5C 1332.83,1999.5 666.167,1999.5 -0.5,1999.5C -0.5,1332.83 -0.5,666.167 -0.5,-0.5 Z"/></g>
<g><path style="opacity:1" fill="#df6b02" d="M 859.5,372.5 C 679.334,373.5 499.001,373.833 318.5,373.5C 318.5,729.5 318.5,1085.5 318.5,1441.5C 386.167,1441.5 453.833,1441.5 521.5,1441.5C 453.669,1442.5 385.669,1442.83 317.5,1442.5C 317.5,1085.5 317.5,728.5 317.5,371.5C 498.188,371.172 678.855,371.505 859.5,372.5 Z"/></g>
<g><path style="opacity:1" fill="#ec7202" d="M 859.5,372.5 C 915.072,373.643 967.405,387.143 1016.5,413C 946.802,448.354 886.802,496.021 836.5,556C 731.501,556.5 626.501,556.667 521.5,556.5C 521.5,683.167 521.5,809.833 521.5,936.5C 593.833,936.5 666.167,936.5 738.5,936.5C 773.502,936.667 808.502,936.5 843.5,936C 863.008,934.923 881.674,930.757 899.5,923.5C 962.149,898.897 1001.65,853.897 1018,788.5C 1025.39,753.274 1023.73,718.607 1013,684.5C 1059.38,633.843 1116.05,600.176 1183,583.5C 1183.77,583.645 1184.44,583.978 1185,584.5C 1222.15,663.691 1231.15,746.024 1212,831.5C 1180.77,952.716 1108.27,1039.22 994.5,1091C 982.607,1095.8 970.607,1100.3 958.5,1104.5C 1006.46,1177.18 1072.13,1226.68 1155.5,1253C 1177.1,1259.42 1199.1,1263.59 1221.5,1265.5C 1221.5,1319.83 1221.5,1374.17 1221.5,1428.5C 1076.17,1416.09 955.999,1355.09 861,1245.5C 829.654,1208.18 803.82,1167.18 783.5,1122.5C 696.169,1121.5 608.836,1121.17 521.5,1121.5C 521.5,1228.17 521.5,1334.83 521.5,1441.5C 453.833,1441.5 386.167,1441.5 318.5,1441.5C 318.5,1085.5 318.5,729.5 318.5,373.5C 499.001,373.833 679.334,373.5 859.5,372.5 Z"/></g>
<g><path style="opacity:1" fill="#fefefe" d="M 1491.5,603.5 C 1486.73,602.111 1481.73,601.444 1476.5,601.5C 1462.41,599.728 1448.75,596.228 1435.5,591C 1364.43,553.822 1289.1,540.155 1209.5,550C 1092.65,569.294 1004.49,629.794 945,731.5C 911.911,791.192 896.745,855.192 899.5,923.5C 881.674,930.757 863.008,934.923 843.5,936C 808.502,936.5 773.502,936.667 738.5,936.5C 731.853,790.922 776.686,663.922 873,555.5C 991.799,430.394 1137.63,374.227 1310.5,387C 1439.4,400.955 1548.73,454.122 1638.5,546.5C 1598.29,587.415 1549.29,606.415 1491.5,603.5 Z"/></g>
<g><path style="opacity:1" fill="#a4a4a4" d="M 1476.5,601.5 C 1481.73,601.444 1486.73,602.111 1491.5,603.5C 1486.27,603.556 1481.27,602.889 1476.5,601.5 Z"/></g>
<g><path style="opacity:1" fill="#fefefe" d="M 1281.5,1429.5 C 1274.5,1429.5 1267.5,1429.5 1260.5,1429.5C 1260.5,1375.83 1260.5,1322.17 1260.5,1268.5C 1356.18,1266.56 1439.02,1233.23 1509,1168.5C 1509.5,1114.5 1509.67,1060.5 1509.5,1006.5C 1420.83,1006.5 1332.17,1006.5 1243.5,1006.5C 1245.72,940.203 1275.05,890.037 1331.5,856C 1352.46,844.57 1374.79,837.57 1398.5,835C 1492.83,834.5 1587.17,834.333 1681.5,834.5C 1682,962.914 1681.5,1091.25 1680,1219.5C 1579.65,1349.77 1446.82,1419.77 1281.5,1429.5 Z"/></g>
<g><path style="opacity:1" fill="#848484" d="M 1260.5,1268.5 C 1260.5,1322.17 1260.5,1375.83 1260.5,1429.5C 1267.5,1429.5 1274.5,1429.5 1281.5,1429.5C 1274.35,1430.49 1267.02,1430.82 1259.5,1430.5C 1259.17,1376.33 1259.5,1322.33 1260.5,1268.5 Z"/></g>
<g><path style="opacity:1" fill="#6a6a6a" d="M 433.5,1540.5 C 443.319,1539.51 453.319,1539.17 463.5,1539.5C 463.737,1540.79 463.404,1541.79 462.5,1542.5C 453.225,1540.53 443.558,1539.86 433.5,1540.5 Z"/></g>
<g><path style="opacity:1" fill="#fbfbfb" d="M 505.5,1539.5 C 529.502,1539.33 553.502,1539.5 577.5,1540C 594.519,1543.53 600.686,1553.7 596,1570.5C 592.527,1584.25 587.86,1597.59 582,1610.5C 575.67,1619.09 567.17,1624.25 556.5,1626C 540.167,1626.67 523.833,1626.67 507.5,1626C 492.872,1623.05 486.372,1614.22 488,1599.5C 493.339,1579.32 499.173,1559.32 505.5,1539.5 Z"/></g>
<g><path style="opacity:1" fill="#fbfbfb" d="M 766.5,1539.5 C 789.502,1539.33 812.502,1539.5 835.5,1540C 845.634,1540.31 853.134,1544.81 858,1553.5C 859.078,1562.4 858.078,1571.07 855,1579.5C 851.836,1591 847.503,1602 842,1612.5C 835.889,1619.97 828.055,1624.47 818.5,1626C 801.833,1626.67 785.167,1626.67 768.5,1626C 753.01,1622.15 746.843,1612.32 750,1596.5C 755.405,1577.45 760.905,1558.45 766.5,1539.5 Z"/></g>
<g><path style="opacity:1" fill="#fbfbfb" d="M 433.5,1540.5 C 443.558,1539.86 453.225,1540.53 462.5,1542.5C 454.908,1570.28 446.908,1597.94 438.5,1625.5C 431.197,1626.5 423.863,1626.83 416.5,1626.5C 421.308,1606.22 427.475,1586.56 435,1567.5C 418.978,1586.69 403.144,1606.02 387.5,1625.5C 381.872,1626.5 376.206,1626.83 370.5,1626.5C 365.656,1607.46 360.656,1588.46 355.5,1569.5C 355.631,1568.62 355.298,1567.96 354.5,1567.5C 353.548,1569.05 353.215,1570.71 353.5,1572.5C 349.443,1590.67 344.776,1608.67 339.5,1626.5C 332.167,1626.5 324.833,1626.5 317.5,1626.5C 324.681,1597.95 332.681,1569.62 341.5,1541.5C 350.727,1540.18 359.893,1540.18 369,1541.5C 374.667,1561.5 380.333,1581.5 386,1601.5C 386.899,1597.46 388.566,1593.8 391,1590.5C 405.031,1573.64 419.198,1556.98 433.5,1540.5 Z"/></g>
<g><path style="opacity:1" fill="#fcfcfc" d="M 723.5,1558.5 C 709.817,1558.17 696.15,1558.5 682.5,1559.5C 682.624,1560.11 682.957,1560.44 683.5,1560.5C 686.144,1562.52 686.977,1565.18 686,1568.5C 680.489,1587.55 674.822,1606.55 669,1625.5C 661.921,1626.48 654.755,1626.81 647.5,1626.5C 652.724,1604.6 658.724,1582.94 665.5,1561.5C 666.404,1560.79 666.737,1559.79 666.5,1558.5C 654.988,1558.83 643.654,1558.49 632.5,1557.5C 633.833,1551.83 635.167,1546.17 636.5,1540.5C 667.168,1540.33 697.835,1540.5 728.5,1541C 726.691,1546.79 725.024,1552.62 723.5,1558.5 Z"/></g>
<g><path style="opacity:1" fill="#fbfbfb" d="M 906.5,1540.5 C 937.168,1540.33 967.835,1540.5 998.5,1541C 995.566,1551.57 992.4,1562.07 989,1572.5C 985.312,1577.69 980.812,1582.02 975.5,1585.5C 980.45,1588.4 983.117,1592.73 983.5,1598.5C 980.913,1607.77 978.579,1617.1 976.5,1626.5C 968.804,1626.83 961.138,1626.5 953.5,1625.5C 955.577,1618.69 957.577,1611.86 959.5,1605C 959.561,1603.29 958.894,1601.96 957.5,1601C 942.238,1599.55 926.905,1599.05 911.5,1599.5C 909.011,1608.46 906.677,1617.46 904.5,1626.5C 897.167,1626.5 889.833,1626.5 882.5,1626.5C 889.876,1597.66 897.876,1569 906.5,1540.5 Z"/></g>
<g><path style="opacity:1" fill="#e97002" d="M 1057.5,1539.5 C 1079.17,1539.33 1100.84,1539.5 1122.5,1540C 1137.7,1542.7 1143.37,1551.54 1139.5,1566.5C 1132.2,1567.5 1124.86,1567.83 1117.5,1567.5C 1117.66,1564.81 1117.5,1562.15 1117,1559.5C 1116.25,1558.87 1115.42,1558.37 1114.5,1558C 1100.49,1557.17 1086.49,1557.33 1072.5,1558.5C 1070.69,1562.34 1070.19,1566.34 1071,1570.5C 1071.9,1571.7 1073.07,1572.53 1074.5,1573C 1088.83,1573.33 1103.17,1573.67 1117.5,1574C 1127.85,1575.85 1133.52,1582.02 1134.5,1592.5C 1132.17,1612.33 1121.17,1623.83 1101.5,1627C 1087.17,1627.67 1072.83,1627.67 1058.5,1627C 1039.8,1625.48 1032.46,1615.65 1036.5,1597.5C 1044.2,1597.17 1051.86,1597.5 1059.5,1598.5C 1057.92,1601.94 1058.25,1605.1 1060.5,1608C 1074.83,1608.67 1089.17,1608.67 1103.5,1608C 1109.26,1605.32 1111.42,1600.82 1110,1594.5C 1109.1,1593.3 1107.93,1592.47 1106.5,1592C 1091.17,1591.67 1075.83,1591.33 1060.5,1591C 1050.06,1587.63 1045.56,1580.46 1047,1569.5C 1049.42,1559.08 1052.92,1549.08 1057.5,1539.5 Z"/></g>
<g><path style="opacity:1" fill="#ea7102" d="M 1190.5,1540.5 C 1219.83,1540.5 1249.17,1540.5 1278.5,1540.5C 1276.03,1552.33 1272.87,1564 1269,1575.5C 1263.92,1586.91 1255.42,1594.41 1243.5,1598C 1227.82,1598.17 1212.16,1598.67 1196.5,1599.5C 1193.96,1608.22 1191.29,1616.88 1188.5,1625.5C 1181.2,1626.5 1173.86,1626.83 1166.5,1626.5C 1174.3,1597.78 1182.3,1569.11 1190.5,1540.5 Z"/></g>
<g><path style="opacity:1" fill="#ea7102" d="M 1320.5,1539.5 C 1344.17,1539.33 1367.84,1539.5 1391.5,1540C 1403.41,1541.57 1410.41,1548.24 1412.5,1560C 1409.35,1575.1 1405.18,1589.93 1400,1604.5C 1392.9,1617.92 1381.73,1625.42 1366.5,1627C 1353.5,1627.67 1340.5,1627.67 1327.5,1627C 1309.36,1625.21 1301.19,1615.38 1303,1597.5C 1308.22,1577.94 1314.06,1558.6 1320.5,1539.5 Z"/></g>
<g><path style="opacity:1" fill="#eb7202" d="M 1459.5,1540.5 C 1490.17,1540.5 1520.83,1540.5 1551.5,1540.5C 1548.93,1552.11 1545.43,1563.44 1541,1574.5C 1537.92,1579.41 1533.76,1583.08 1528.5,1585.5C 1533.23,1588.21 1535.89,1592.21 1536.5,1597.5C 1534.32,1607.22 1531.99,1616.88 1529.5,1626.5C 1522.17,1626.5 1514.83,1626.5 1507.5,1626.5C 1508.77,1619.26 1510.43,1612.1 1512.5,1605C 1512.56,1603.29 1511.89,1601.96 1510.5,1601C 1495.26,1599.53 1479.93,1599.03 1464.5,1599.5C 1462.62,1608.44 1460.29,1617.27 1457.5,1626C 1450.17,1626.5 1442.84,1626.67 1435.5,1626.5C 1442.89,1597.66 1450.89,1568.99 1459.5,1540.5 Z"/></g>
<g><path style="opacity:1" fill="#ea7102" d="M 1676.5,1558.5 C 1662.82,1558.17 1649.15,1558.5 1635.5,1559.5C 1635.62,1560.11 1635.96,1560.44 1636.5,1560.5C 1637.46,1560.95 1638.29,1561.62 1639,1562.5C 1639.67,1564.83 1639.67,1567.17 1639,1569.5C 1633.34,1588.49 1627.84,1607.49 1622.5,1626.5C 1615.14,1626.83 1607.8,1626.5 1600.5,1625.5C 1606.34,1603.5 1612.67,1581.66 1619.5,1560C 1608.17,1559.5 1596.84,1559.33 1585.5,1559.5C 1586.46,1553.13 1588.12,1546.96 1590.5,1541C 1620.83,1540.5 1651.16,1540.33 1681.5,1540.5C 1679.83,1546.5 1678.17,1552.5 1676.5,1558.5 Z"/></g>
<g><path style="opacity:1" fill="#878787" d="M 632.5,1557.5 C 643.654,1558.49 654.988,1558.83 666.5,1558.5C 666.737,1559.79 666.404,1560.79 665.5,1561.5C 654.53,1559.85 643.196,1558.85 631.5,1558.5C 631.624,1557.89 631.957,1557.56 632.5,1557.5 Z"/></g>
<g><path style="opacity:1" fill="#777777" d="M 723.5,1558.5 C 710.167,1559.17 696.833,1559.83 683.5,1560.5C 682.957,1560.44 682.624,1560.11 682.5,1559.5C 696.15,1558.5 709.817,1558.17 723.5,1558.5 Z"/></g>
<g><path style="opacity:1" fill="#9a9a9a" d="M 923.5,1559.5 C 939.338,1558.17 955.338,1558.17 971.5,1559.5C 971.376,1560.11 971.043,1560.44 970.5,1560.5C 955.009,1559.5 939.342,1559.17 923.5,1559.5 Z"/></g>
<g><path style="opacity:1" fill="#8e4200" d="M 1476.5,1559.5 C 1492.34,1558.17 1508.34,1558.17 1524.5,1559.5C 1524.38,1560.11 1524.04,1560.44 1523.5,1560.5C 1508.01,1559.5 1492.34,1559.17 1476.5,1559.5 Z"/></g>
<g><path style="opacity:1" fill="#6c3102" d="M 1676.5,1558.5 C 1663.17,1559.17 1649.83,1559.83 1636.5,1560.5C 1635.96,1560.44 1635.62,1560.11 1635.5,1559.5C 1649.15,1558.5 1662.82,1558.17 1676.5,1558.5 Z"/></g>
<g><path style="opacity:1" fill="#030303" d="M 522.5,1558.5 C 537.837,1558.33 553.17,1558.5 568.5,1559C 573.226,1561.39 574.726,1565.22 573,1570.5C 570.333,1579.83 567.667,1589.17 565,1598.5C 563.131,1603.35 559.631,1606.18 554.5,1607C 541.5,1607.67 528.5,1607.67 515.5,1607C 514.069,1606.53 512.903,1605.7 512,1604.5C 511.333,1601.17 511.333,1597.83 512,1594.5C 515.209,1582.38 518.709,1570.38 522.5,1558.5 Z"/></g>
<g><path style="opacity:1" fill="#030303" d="M 783.5,1558.5 C 798.837,1558.33 814.17,1558.5 829.5,1559C 834.71,1560.21 836.544,1563.38 835,1568.5C 832.333,1577.83 829.667,1587.17 827,1596.5C 825.594,1601.57 822.428,1605.07 817.5,1607C 803.833,1607.67 790.167,1607.67 776.5,1607C 775.584,1606.63 774.75,1606.13 774,1605.5C 772.517,1602.3 772.183,1598.96 773,1595.5C 776.818,1583.23 780.318,1570.9 783.5,1558.5 Z"/></g>
<g><path style="opacity:1" fill="#030303" d="M 923.5,1559.5 C 939.342,1559.17 955.009,1559.5 970.5,1560.5C 969.109,1565.17 967.609,1569.84 966,1574.5C 964.127,1576.71 961.96,1578.54 959.5,1580C 947.833,1580.33 936.167,1580.67 924.5,1581C 921.073,1582.43 918.24,1584.6 916,1587.5C 918.177,1578.13 920.677,1568.79 923.5,1559.5 Z"/></g>
<g><path style="opacity:1" fill="#030100" d="M 1202.5,1584.5 C 1201.66,1584.16 1201.33,1583.49 1201.5,1582.5C 1203.19,1575.09 1205.19,1567.76 1207.5,1560.5C 1222.16,1559.33 1236.82,1559.17 1251.5,1560C 1249.93,1564.45 1248.43,1568.95 1247,1573.5C 1245.45,1576.05 1243.28,1577.89 1240.5,1579C 1230.17,1579.33 1219.83,1579.67 1209.5,1580C 1206.76,1581.03 1204.43,1582.53 1202.5,1584.5 Z"/></g>
<g><path style="opacity:1" fill="#040100" d="M 1336.5,1558.5 C 1351.84,1558.33 1367.17,1558.5 1382.5,1559C 1387.71,1560.21 1389.54,1563.38 1388,1568.5C 1385.13,1579.65 1381.8,1590.65 1378,1601.5C 1375.9,1604.47 1373.07,1606.3 1369.5,1607C 1356.17,1607.67 1342.83,1607.67 1329.5,1607C 1325.08,1602.87 1324.24,1598.04 1327,1592.5C 1330.48,1581.24 1333.64,1569.9 1336.5,1558.5 Z"/></g>
<g><path style="opacity:1" fill="#030100" d="M 1476.5,1559.5 C 1492.34,1559.17 1508.01,1559.5 1523.5,1560.5C 1522.37,1566.06 1520.54,1571.39 1518,1576.5C 1517.1,1577.7 1515.93,1578.53 1514.5,1579C 1502.24,1580.27 1489.9,1580.94 1477.5,1581C 1474.1,1582.4 1471.26,1584.57 1469,1587.5C 1471.17,1578.16 1473.67,1568.83 1476.5,1559.5 Z"/></g>
<g><path style="opacity:1" fill="#707070" d="M 355.5,1569.5 C 354.833,1570.5 354.167,1571.5 353.5,1572.5C 353.215,1570.71 353.548,1569.05 354.5,1567.5C 355.298,1567.96 355.631,1568.62 355.5,1569.5 Z"/></g>
<g><path style="opacity:1" fill="#632d05" d="M 1201.5,1582.5 C 1201.33,1583.49 1201.66,1584.16 1202.5,1584.5C 1202,1586.08 1201,1586.58 1199.5,1586C 1200.08,1584.7 1200.75,1583.53 1201.5,1582.5 Z"/></g>
</svg>
