<?xml version="1.0" standalone="no"?>
<!DOCTYPE svg PUBLIC "-//W3C//DTD SVG 20010904//EN"
 "http://www.w3.org/TR/2001/REC-SVG-20010904/DTD/svg10.dtd">
<svg version="1.0" xmlns="http://www.w3.org/2000/svg"
 width="133.000000pt" height="133.000000pt" viewBox="0 0 133.000000 133.000000"
 preserveAspectRatio="xMidYMid meet">

<g transform="translate(0.000000,133.000000) scale(0.100000,-0.100000)"
fill="#000000" stroke="none">
<path d="M530 1205 c-197 -54 -358 -206 -421 -396 -20 -63 -24 -92 -23 -194 0
-103 4 -130 26 -187 58 -153 165 -275 300 -341 98 -47 165 -62 278 -61 310 3
566 246 587 557 17 266 -146 515 -398 604 -93 33 -261 42 -349 18z m319 -74
c155 -53 274 -168 332 -322 19 -48 44 -198 35 -206 -2 -3 -17 23 -32 57 -25
55 -81 120 -104 120 -6 0 -10 7 -10 15 0 8 7 15 15 15 10 0 15 11 15 35 0 32
-2 35 -30 35 -24 0 -30 4 -30 21 0 49 -23 111 -45 119 -12 5 -25 18 -28 31 -6
21 -10 22 -68 15 -34 -3 -138 -6 -231 -6 l-169 0 -10 -30 c-6 -16 -17 -30 -24
-30 -8 0 -22 -24 -33 -52 -17 -47 -23 -53 -51 -56 -28 -3 -31 -7 -31 -37 0
-19 5 -37 10 -40 11 -7 9 -16 -12 -87 -9 -30 -16 -38 -35 -38 -35 0 -30 -36 7
-55 33 -17 40 -35 13 -35 -25 0 -101 -48 -115 -73 -7 -12 -15 -49 -18 -82 l-6
-60 -24 75 c-35 105 -34 235 2 337 65 185 223 319 418 357 56 10 196 -2 259
-23z m56 -91 c-27 -5 -131 -8 -230 -7 l-180 1 130 6 c72 3 175 6 230 7 82 0
91 -1 50 -7z m101 -53 c6 -16 22 -161 19 -165 -2 -2 -25 0 -52 4 -37 4 -51 11
-59 27 -6 15 -22 24 -49 29 -57 10 -202 9 -325 -2 -97 -9 -107 -11 -127 -37
-13 -15 -23 -23 -23 -17 0 6 10 24 23 39 12 16 29 49 37 74 l15 46 90 6 c50 3
170 6 268 7 140 2 179 -1 183 -11z m-112 -133 c22 -21 20 -47 -4 -69 -44 -40
-107 25 -69 71 15 19 54 18 73 -2z m-386 -6 c28 -28 2 -88 -38 -88 -24 0 -50
26 -50 50 0 40 60 66 88 38z m463 -50 c-46 -8 -57 -6 -48 9 3 5 25 7 49 4 l43
-5 -44 -8z m-380 -51 l154 -3 -172 -2 c-151 -2 -172 0 -167 13 5 11 10 12 18
6 7 -6 82 -12 167 -14z m24 -68 c-49 -4 -124 -7 -165 -8 -45 -1 -81 -6 -88
-13 -9 -9 -12 -9 -12 1 0 8 -7 11 -20 8 -11 -3 -20 -1 -20 3 0 12 72 16 250
17 136 0 139 -1 55 -8z m480 -4 c1 -5 11 -26 23 -45 15 -23 21 -48 20 -73 -3
-50 -13 -56 -16 -10 -3 42 -37 113 -55 114 -6 0 -3 5 8 10 17 8 16 9 -7 6 -15
-2 -25 0 -22 5 8 12 49 6 49 -7z m-1 -164 c-2 -3 -12 3 -22 13 -16 17 -16 18
5 5 12 -7 20 -15 17 -18z m-654 -36 c13 -14 20 -28 17 -31 -4 -4 -16 5 -27 19
-11 14 -30 28 -43 30 -20 4 -19 4 4 6 16 0 35 -9 49 -24z m125 -31 c-133 -45
-156 -51 -140 -35 11 11 232 79 255 79 8 0 -43 -19 -115 -44z m344 28 c8 -15
2 -30 -25 -70 -19 -29 -38 -52 -43 -52 -4 0 -30 7 -56 15 -47 14 -49 13 -77
-10 -39 -33 -68 -31 -103 5 -16 17 -37 30 -47 30 -40 0 -15 28 40 44 43 12
215 45 294 55 4 1 12 -7 17 -17z m-429 -90 c0 -10 -7 -27 -15 -38 -14 -18 -15
-17 -9 11 10 47 24 62 24 27z"/>
<path d="M521 971 c-40 -5 -45 -9 -57 -44 l-13 -38 52 8 c29 4 126 8 217 7
135 0 174 -4 217 -19 29 -10 55 -16 58 -13 3 3 2 27 -2 54 l-8 49 -210 1
c-116 1 -230 -2 -254 -5z"/>
</g>
</svg>
